HIERARCHY
ROOT ui
{
	 OFFSET 0 0 0
	 CHANNELS 3 XPosition YPosition Z Position
	 EndSite
	 {
	 OFFSET 0 -1 0
	 }
}
ROOT li
{
	 OFFSET 0 0 0
	 CHANNELS 3 XPosition YPosition Z Position
	 EndSite
	 {
	 OFFSET 0 -1 0
	 }
}
ROOT ul
{
	 OFFSET 0 0 0
	 CHANNELS 3 XPosition YPosition Z Position
	 EndSite
	 {
	 OFFSET 0 -1 0
	 }
}
ROOT ll
{
	 OFFSET 0 0 0
	 CHANNELS 3 XPosition YPosition Z Position
	 EndSite
	 {
	 OFFSET 0 -1 0
	 }
}
ROOT tt
{
	 OFFSET 0 0 0
	 CHANNELS 3 XPosition YPosition Z Position
	 EndSite
	 {
	 OFFSET 0 -1 0
	 }
}
ROOT tb
{
	 OFFSET 0 0 0
	 CHANNELS 3 XPosition YPosition Z Position
	 EndSite
	 {
	 OFFSET 0 -1 0
	 }
}
ROOT td
{
	 OFFSET 0 0 0
	 CHANNELS 3 XPosition YPosition Z Position
	 EndSite
	 {
	 OFFSET 0 -1 0
	 }
}
ROOT v
{
	 OFFSET 0 0 0
	 CHANNELS 3 XPosition YPosition Z Position
	 EndSite
	 {
	 OFFSET 0 -1 0
	 }
}
ROOT bn
{
	 OFFSET 0 0 0
	 CHANNELS 3 XPosition YPosition Z Position
	 EndSite
	 {
	 OFFSET 0 -1 0
	 }
}
MOTION
Frames: 19
Frame Time: 0.002
0.012955920219421387	0.0037936298847198488	0		0.5554390869140625	-2.566503173828125	0		-1.0505615234375	-0.1500587615966797	0		-0.6761036987304687	-2.512741943359375	0		1.762512451171875	-0.4699329833984375	0		3.08764208984375	-0.881604248046875	0		4.5070029296875	-0.6411455688476563	0		5.818912109375	0.27860211181640626	0		-0.4404125061035156	5.83238818359375	0		
0.017741762161254882	-0.0011962209939956666	0		0.5530865478515625	-2.569459228515625	0		-1.0447947998046876	-0.1559928436279297	0		-0.6764241943359375	-2.5126416015625	0		1.750173828125	-0.4848664855957031	0		3.0844892578125	-0.8747067260742187	0		4.50679736328125	-0.6413637084960937	0		5.811658203125	0.27825274658203125	0		-0.4402202758789063	5.83247412109375	0		
0.012562361717224121	0.00394106388092041	0		0.596735595703125	-2.56383349609375	0		-1.0569266357421876	-0.14471405029296874	0		-0.687749267578125	-2.50439794921875	0		1.701953125	-0.48043365478515626	0		3.078278076171875	-0.8667735595703125	0		4.50042822265625	-0.65152880859375	0		5.81862353515625	0.2775428466796875	0		-0.4400418701171875	5.83259521484375	0		
-0.06280248641967773	-0.0022061359882354736	0		0.5442898559570313	-2.55825048828125	0		-1.0572381591796876	-0.14451129150390624	0		-0.6773202514648438	-2.512330322265625	0		1.7345167236328125	-0.49076385498046876	0		3.058990234375	-0.8587028198242187	0		4.495	-0.659702880859375	0		5.81688037109375	0.2527982482910156	0		-0.43989517211914064	5.83275048828125	0		
0.01380143928527832	-0.003805717945098877	0		0.5816068115234375	-2.567515869140625	0		-1.033633544921875	-0.1445077362060547	0		-0.6869776000976563	-2.519033203125	0		1.6810572509765624	-0.49423211669921874	0		3.08044775390625	-0.868017578125	0		4.48965234375	-0.6508709716796875	0		5.8244267578125	0.24685987854003907	0		-0.43782754516601563	5.829919921875	0		
-0.060624275207519535	0.00111086905002594	0		0.552126708984375	-2.546095703125	0		-1.024135009765625	-0.14633424377441406	0		-0.6086473999023437	-2.517574462890625	0		1.6995350341796875	-0.4953818969726563	0		3.097220947265625	-0.8362697143554687	0		4.49522607421875	-0.6411343383789062	0		5.82280078125	0.2809432373046875	0		-0.40859686279296875	5.84985205078125	0		
0.015808319091796873	-4.400849938392639E-4	0		0.5992455444335938	-2.556409912109375	0		-1.0306512451171874	-0.14096929931640625	0		-0.64641162109375	-2.515935546875	0		1.66503955078125	-0.4849775390625	0		3.084583984375	-0.8372085571289063	0		4.498505859375	-0.6523563842773438	0		5.81877783203125	0.26667324829101563	0		-0.443671875	5.84645361328125	0		
-0.06180893325805664	0.0015822819471359253	0		0.5375321044921875	-2.5416015625	0		-1.0213055419921875	-0.14173284912109374	0		-0.612298095703125	-2.518985595703125	0		1.6552545166015624	-0.49578768920898436	0		3.07204052734375	-0.82111572265625	0		4.49290771484375	-0.6434592895507812	0		5.8202880859375	0.22463758850097656	0		-0.40972576904296876	5.85239501953125	0		
0.006502114772796631	0.0021623020172119142	0		0.5704708862304687	-2.55571630859375	0		-1.0079939575195314	-0.139509033203125	0		-0.6362423095703125	-2.521420166015625	0		1.631486328125	-0.49841952514648435	0		3.08034423828125	-0.8141973266601562	0		4.49706396484375	-0.6526229858398438	0		5.81266015625	0.22614974975585939	0		-0.4099122619628906	5.85270849609375	0		
0.013739486694335938	3.890320062637329E-4	0		0.54658935546875	-2.548218505859375	0		-1.0006759033203125	-0.1321983184814453	0		-0.615369873046875	-2.538282958984375	0		1.6415689697265625	-0.5113583374023437	0		3.066874267578125	-0.7810126953125	0		4.492380859375	-0.6416475219726563	0		5.81866748046875	0.2550981903076172	0		-0.3940854797363281	5.86088720703125	0		
0.012971782684326172	7.285940051078797E-4	0		0.575643310546875	-2.54623095703125	0		-1.061429931640625	-0.12915933227539061	0		-0.6442188720703125	-2.52660546875	0		1.64972998046875	-0.5142378540039062	0		3.08397265625	-0.7880955810546875	0		4.49564599609375	-0.63369677734375	0		5.8181142578125	0.2549092254638672	0		-0.394399169921875	5.86125830078125	0		
0.01219672679901123	0.0010989780426025391	0		0.5647850341796875	-2.536796142578125	0		-0.9822809448242188	-0.13554722595214844	0		-0.5982872924804687	-2.53767822265625	0		1.6489190673828125	-0.5139815673828125	0		3.08952783203125	-0.7510037841796875	0		4.49787890625	-0.6286703491210938	0		5.817556640625	0.25485137939453123	0		-0.39378662109375	5.85964697265625	0		
0.008398480415344238	-0.001469009041786194	0		0.561844482421875	-2.53840771484375	0		-1.0648944091796875	-0.11922852325439454	0		-0.6052695922851562	-2.543177978515625	0		1.614070556640625	-0.5183231201171875	0		3.088715576171875	-0.75078857421875	0		4.48910595703125	-0.6254562377929688	0		5.817005859375	0.2549408874511719	0		-0.26097775268554685	5.8806767578125	0		
0.007652050018310547	-0.0010392769575119018	0		0.5869395141601562	-2.541279052734375	0		-1.039732421875	-0.1270189895629883	0		-0.5752171630859375	-2.5500439453125	0		1.5992467041015626	-0.5228251342773438	0		3.07006982421875	-0.7373223876953126	0		4.49444384765625	-0.6143119506835938	0		5.8255615234375	0.2134337921142578	0		-0.26044378662109374	5.880109375	0		
0.006936604976654053	-5.811460018157959E-4	0		0.54611767578125	-2.54142041015625	0		-1.1004176025390624	-0.12288658142089844	0		-0.6061561279296875	-2.56124560546875	0		1.59850048828125	-0.5234283447265625	0		3.0903037109375	-0.7392042846679687	0		4.501662109375	-0.618111328125	0		5.8244697265625	0.24499501037597657	0		-0.37807363891601564	5.86781494140625	0		
0.009292007446289063	0.0028728480339050293	0		0.602376220703125	-2.540553955078125	0		-1.0099647216796874	-0.11033389282226562	0		-0.5739603881835937	-2.566091552734375	0		1.6098193359375	-0.5221151123046875	0		3.108114013671875	-0.6909998779296875	0		4.50522216796875	-0.593797607421875	0		5.82398583984375	0.24554840087890625	0		-0.44185400390625	5.84298095703125	0		
0.008661340713500977	0.0033858819007873534	0		0.530943115234375	-2.51630029296875	0		-1.0105975952148438	-0.10980058288574218	0		-0.55283447265625	-2.58379931640625	0		1.6180078125	-0.5377285766601563	0		3.089427978515625	-0.6943572387695313	0		4.5115263671875	-0.5984480590820312	0		5.81640185546875	0.24641978454589844	0		-0.47156854248046876	5.8248115234375	0		
0.005048641204833984	9.570289850234985E-4	0		0.578221923828125	-2.52627734375	0		-1.01812646484375	-0.10417474365234375	0		-0.5615321044921875	-2.591167724609375	0		1.6294300537109374	-0.5363370361328125	0		3.104018310546875	-0.6770166625976562	0		4.509076171875	-0.5849442749023438	0		5.82311962890625	0.24704429626464844	0		-0.3179160461425781	5.83971923828125	0		
0.0045196437835693356	0.0015205190181732178	0		0.563646728515625	-2.528568115234375	0		-1.01461376953125	-0.09964791870117187	0		-0.549375	-2.618737548828125	0		1.6348231201171874	-0.5428466186523437	0		3.11058056640625	-0.667546630859375	0		4.50569287109375	-0.57037646484375	0		5.81560888671875	0.24814324951171876	0		-0.4375311279296875	5.82955078125	0		
